# xmcd CD database file
# Copyright (C) 1993-1998 Ti Kan
#
# Track frame offsets:
#  182
#  12547
#  25120
#  42495
#  56592
#  74090
#  87002
#  99710
#  111105
#  124780
#  138850
#  151675
#  167372
#
# Disc length: 2380 seconds
#
# Revision: 1
# Processed by: cddbd v1.4b41PL1 Copyright (c) Steve Scherf et al.
# Submitted via: KiC 2.1 - (C) 1996-1998 Alwin Hoogerdijk
#
DISCID=a5094a0d
DTITLE=Doyle Lawson and Quicksilver - Hallelujah in My Heart
DYEAR=1900
DGENRE=
TTITLE0=Hallelujah in My Heart
TTITLE1=Always There
TTITLE2=The Cross Road
TTITLE3=I Wasn't There
TTITLE4=Someday, Somewhere
TTITLE5=Highway to Heaven
TTITLE6=Power in His Name
TTITLE7=The Golden Hills Ahead
TTITLE8=I Want to Live So I'll Be Ready
TTITLE9=The Hills of Glory
TTITLE10=Show Me the Way
TTITLE11=Just a Few More Days
TTITLE12=On the Other Side
EXTD=
EXTT0=
EXTT1=
EXTT2=
EXTT3=
EXTT4=
EXTT5=
EXTT6=
EXTT7=
EXTT8=
EXTT9=
EXTT10=
EXTT11=
EXTT12=
PLAYORDER=
